<svg id="Layer_1" height="512" viewBox="0 0 64 64" width="512" xmlns="http://www.w3.org/2000/svg" data-name="Layer 1"><path d="m8 .968h4v24.032h-4z" fill="#9edfe0"/><path d="m4 .968h4v24.032h-4z" fill="#23a8cc"/><path d="m12 34v-33.032h20l10 10v23.032z" fill="#6a951f"/><path d="m32 1v10h10z" fill="#91b472"/><path d="m52 31h-28l-4-9h-19v41h51z" fill="#fcc325"/><g opacity=".2"><path d="m52 31h-28l-4-9h-19v12.3c6.761-.679 16.163-.342 24 4.7 7.673 4.933 18.645 2.654 27-.411z" fill="#fff"/></g><circle cx="52" cy="48" fill="#23a8cc" r="11.078"/><g opacity=".2"><path d="m62.644 44.954a11.074 11.074 0 0 0 -21.51 5.2c5.011-2.29 13.373-5.394 21.51-5.2z" fill="#fff"/></g><g fill="#043c49"><path d="m56.293 43.293-7.293 7.294-2.3-2.287a1 1 0 1 0 -1.41 1.418l3.008 2.992a1 1 0 0 0 1.412 0l8-8a1 1 0 0 0 -1.414-1.414z"/><path d="m22 10a1 1 0 0 0 0 2h1a1 1 0 0 0 0-2z"/><path d="m27 10h-1a1 1 0 0 0 0 2h1a1 1 0 0 0 0-2z"/><path d="m19 12a1 1 0 0 0 0-2h-1a1 1 0 0 0 0 2z"/><path d="m18 8h9a1 1 0 0 0 0-2h-9a1 1 0 0 0 0 2z"/><path d="m36 18a1 1 0 0 0 -1-1h-16a1 1 0 0 0 0 2h16a1 1 0 0 0 1-1z"/><path d="m35 21h-7a1 1 0 0 0 0 2h7a1 1 0 0 0 0-2z"/><path d="m35 25h-6a1 1 0 0 0 0 2h6a1 1 0 0 0 0-2z"/><path d="m10 60a1 1 0 0 0 0-2h-1a1 1 0 0 0 0 2z"/><path d="m14 60a1 1 0 0 0 0-2h-1a1 1 0 0 0 0 2z"/><path d="m6 60a1 1 0 0 0 0-2h-1a1 1 0 0 0 0 2z"/><path d="m1 43a1 1 0 0 0 1-1v-1a1 1 0 0 0 -2 0v1a1 1 0 0 0 1 1z"/><path d="m4 3a1 1 0 0 0 1-1v-1a1 1 0 0 0 -2 0v1a1 1 0 0 0 1 1z"/><path d="m64.078 48a12.088 12.088 0 0 0 -11.078-12.027v-4.973a1 1 0 0 0 -1-1h-8.968v-19.032a1.03 1.03 0 0 0 -.3-.73l-10-10a1.032 1.032 0 0 0 -.732-.302h-20a1.032 1.032 0 0 0 -1.032 1.032v20.032h-1.968v-20a1 1 0 0 0 -2 0v20h-2v-15a1 1 0 0 0 -2 0v15h-2a1 1 0 0 0 -1 1v15a1 1 0 0 0 2 0v-14h17.351l3.735 8.406a1 1 0 0 0 .914.594h27v3.973a12.068 12.068 0 0 0 0 24.055v1.972h-49v-16a1 1 0 0 0 -2 0v17a1 1 0 0 0 1 1h51a1 1 0 0 0 1-1v-2.973a12.088 12.088 0 0 0 11.078-12.027zm-31.078-44.572 6.572 6.572h-6.572zm-12.086 18.166a1 1 0 0 0 -.914-.594h-6.968v-19h17.968v9a1 1 0 0 0 1 1h8.968v18h-16.319zm31.086 36.484a10.078 10.078 0 1 1 10.078-10.078 10.09 10.09 0 0 1 -10.078 10.078z"/></g></svg>